# xmcd CD database file
#
# Track frame offsets:
#	150
#	9177
#	61399
#	100411
#	115364
#	162980
#	179983
#	191778
#	206833
#	226553
#	241074
#	257363
#	275008
#	297937
#
# Disc length: 4425 seconds
#
# Revision: 0
# Processed by: cddbd v1.4PL0 Copyright (c) Steve Scherf et al.
# Submitted via: CDex 1.51
#
DISCID=c811470e
DTITLE=Cannonball Adderley - 75th Birthday Celebration [Disc Three]
DYEAR=2003
DGENRE=Jazz
TTITLE0=Introduction - By Cannonball
TTITLE1=Gemini
TTITLE2=Never Say Yes
TTITLE3=Sister Wilson
TTITLE4=Jive Samba
TTITLE5=Easy To Love
TTITLE6=Tengo Tango
TTITLE7=Inside Straight
TTITLE8=Who She Do
TTITLE9=The King And I (Part 1 from "Suite Cannon")
TTITLE10=Oh Bess, Oh Where's My Bess
TTITLE11=Canto de Ossanha
TTITLE12=Sack O' Woe
TTITLE13=Walk Tall - Mercy, Mercy, Mercy
EXTD=YEAR: 2003
EXTT0=
EXTT1=
EXTT2=
EXTT3=
EXTT4=
EXTT5=
EXTT6=
EXTT7=
EXTT8=
EXTT9=
EXTT10=
EXTT11=
EXTT12=
EXTT13=
PLAYORDER=
